<svg width="75" height="50" viewBox="0 0 75 50" fill="none" xmlns="http://www.w3.org/2000/svg">
<rect width="75" height="50" fill="#FAFAFA" fill-opacity="0.01"/>
<path fill-rule="evenodd" clip-rule="evenodd" d="M48.7 21.7059L38.7 11.9045C38.3111 11.5234 37.6889 11.5234 37.3 11.9045L27.3 21.7059C27.1081 21.894 27 22.1514 27 22.4201V34.5L27.008 34.5899C27.0504 34.8231 27.2545 35 27.5 35L35.5 34.9997C35.7761 34.9996 36 34.7758 36 34.4997V29L36.0051 28.8237C36.0963 27.2489 36.4023 26 38 26L38.1763 26.0051C39.6344 26.0896 39.9558 27.2155 39.9955 28.6501L40 29V34.4997C40 34.7758 40.2239 34.9996 40.5 34.9997L48.5 35L48.5899 34.9919C48.8231 34.9496 49 34.7455 49 34.5V22.4201C49 22.1514 48.8919 21.894 48.7 21.7059ZM28.5 22.6301L38 13.3188L47.5 22.6301V33.4999L41.5 33.4997V29L41.4953 28.6307C41.4284 26.2006 40.5423 24.6397 38.263 24.5076L38.0433 24.5006C35.5514 24.5 34.6619 26.0746 34.5076 28.737L34.5006 28.9567L34.5001 33.4997L28.5 33.4999V22.6301Z" fill="#262626"/>
</svg>
