<svg width="75" height="50" viewBox="0 0 75 50" fill="none" xmlns="http://www.w3.org/2000/svg">
<rect width="75" height="50" fill="#FAFAFA" fill-opacity="0.01"/>
<path fill-rule="evenodd" clip-rule="evenodd" d="M48 21C48 14.9249 43.0751 10 37 10C30.9249 10 26 14.9249 26 21C26 27.0751 30.9249 32 37 32C38.326 32 40.1475 31.5163 42.4645 30.5489L46.2113 32.0104L46.3223 32.0465C46.8067 32.1735 47.3199 31.92 47.5063 31.4422C47.5808 31.2511 47.5948 31.0418 47.5464 30.8425L46.5016 26.546L46.6727 26.1367C47.5576 23.9813 48 22.2691 48 21ZM45.2714 25.6004L44.9265 26.4169L45.862 30.2641L42.4454 28.9313L41.5123 29.3183C39.5445 30.1124 38.0245 30.5 37 30.5C31.7533 30.5 27.5 26.2467 27.5 21C27.5 15.7533 31.7533 11.5 37 11.5C42.2467 11.5 46.5 15.7533 46.5 21C46.5 22.0455 46.097 23.5952 45.2714 25.6004Z" fill="#262626"/>
</svg>
